<svg xmlns="http://www.w3.org/2000/svg" xmlns:svg="http://www.w3.org/2000/svg" id="svg8" width="75" height="75" version="1.1" viewBox="0 0 19.844 19.844"><metadata id="metadata5"/><g id="layer1" transform="translate(0,-277.15623)"><path style="stroke-width:.989072;fill:silver;fill-opacity:1" id="rect14" d="M 15 15 L 15 60 L 60 60 L 60 15 L 15 15 z M 16 16 L 59 16 L 59 59 L 16 59 L 16 16 z" transform="matrix(0.26458334,0,0,0.26458334,0,277.15623)"/><path id="rect4585-9" d="m 6.3500002,283.77081 v 0.26459 h 6.8791668 v 1.85208 H 6.3500002 v 2.38125 h 6.8791668 v 1.85208 H 6.3500002 v 0.26459 H 13.49375 v -2.38125 H 6.6145832 v -1.85209 H 13.49375 v -2.38125 z" style="fill:#da4453;fill-opacity:1;stroke:none;stroke-width:5.57354212;stroke-miterlimit:4;stroke-dasharray:none;stroke-opacity:1"/><rect id="rect4727" width="4.233" height=".265" x="5.821" y="283.242" style="fill:#da4453;fill-opacity:1;stroke:none;stroke-width:3.09158969;stroke-miterlimit:4;stroke-dasharray:none;stroke-opacity:1"/><circle id="path22" cx="-9.922" cy="283.374" r="1.984" transform="scale(-1,1)" style="fill:silver;stroke-width:.26458335;fill-opacity:1"/><circle id="path24" cx="-9.922" cy="283.374" r="1.72" transform="scale(-1,1)" style="fill:#3daee9;stroke-width:.26458335;fill-opacity:1"/><path style="fill:#da4453;fill-opacity:1;stroke:none;stroke-width:16;stroke-miterlimit:4;stroke-dasharray:none;stroke-opacity:1" id="rect4559" d="M 47 19 L 38.511719 22.394531 C 38.235589 22.14128 37.874678 22.000538 37.5 22 C 36.671573 22 36 22.671573 36 23.5 C 36 24.328427 36.671573 25 37.5 25 C 37.874678 24.999462 38.235589 24.85872 38.511719 24.605469 L 47 28 L 47 27 L 39.5 24 L 52 24 L 52 51 L 23 51 L 23 23 L 22 23 L 22 52 L 53 52 L 53 23 L 39.5 23 L 47 20 L 47 19 z M 32 23 L 32 24 L 35 24 L 35 23 L 32 23 z" transform="matrix(0.26458334,0,0,0.26458334,0,277.15623)"/></g></svg>