<svg xmlns="http://www.w3.org/2000/svg" xmlns:svg="http://www.w3.org/2000/svg" id="svg8" width="75" height="75" version="1.1" viewBox="0 0 19.844 19.844"><metadata id="metadata5"/><g id="layer1" transform="translate(0,-277.15623)"><path style="stroke-width:.989072;fill:silver;fill-opacity:1" id="rect14" d="M 15 15 L 15 60 L 60 60 L 60 15 L 15 15 z M 16 16 L 59 16 L 59 59 L 16 59 L 16 16 z" transform="matrix(0.26458334,0,0,0.26458334,0,277.15623)"/><path style="fill:silver;stroke-width:.999999;fill-opacity:1" id="path22" d="M 23.5 16 A 7.4999998 7.4999998 0 0 0 16 23.5 A 7.4999998 7.4999998 0 0 0 23.5 31 A 7.4999998 7.4999998 0 0 0 31 23.5 A 7.4999998 7.4999998 0 0 0 23.5 16 z M 23.5 17 A 6.5 6.5 0 0 1 30 23.5 A 6.5 6.5 0 0 1 23.5 30 A 6.5 6.5 0 0 1 17 23.5 A 6.5 6.5 0 0 1 23.5 17 z" transform="matrix(0.26458334,0,0,0.26458334,0,277.15623)"/><circle id="path20" cx="-9.922" cy="287.078" r="1.72" transform="scale(-1,1)" style="fill:silver;stroke-width:.26458335;fill-opacity:.5"/><circle style="fill:#3daee9;fill-opacity:1;stroke-width:.264583" id="path20-7" cx="-6.218" cy="283.374" r="1.72" transform="scale(-1,1)"/><path id="path22-1" d="m 9.9218761,285.09373 a 1.984375,1.984375 0 0 0 -1.9843757,1.98438 1.984375,1.984375 0 0 0 1.9843757,1.98437 1.984375,1.984375 0 0 0 1.9843759,-1.98437 1.984375,1.984375 0 0 0 -1.9843759,-1.98438 z m 0,0.26458 a 1.7197917,1.7197917 0 0 1 1.7197929,1.7198 1.7197917,1.7197917 0 0 1 -1.7197929,1.71979 1.7197917,1.7197917 0 0 1 -1.7197924,-1.71979 1.7197917,1.7197917 0 0 1 1.7197924,-1.7198 z" style="fill:silver;fill-opacity:1;stroke-width:.264583"/><path style="fill:#da4453;fill-opacity:1;stroke:none;stroke-width:14.00949669;stroke-miterlimit:4;stroke-dasharray:none;stroke-opacity:1" id="rect4555" d="M 33 19 L 24.511719 22.394531 A 1.5000001 1.5000001 0 0 0 23.5 22 A 1.5000001 1.5000001 0 0 0 22 23.5 A 1.5000001 1.5000001 0 0 0 23.5 25 A 1.5000001 1.5000001 0 0 0 24.511719 24.605469 L 33 28 L 33 27 L 25.498047 24 L 52 24 L 52 52 L 23 52 L 23 31 L 44 31 L 44 44 L 31 44 L 31 38 L 36.087891 38 A 1.5000001 1.5000001 0 0 0 37.5 39 A 1.5000001 1.5000001 0 0 0 39 37.5 A 1.5000001 1.5000001 0 0 0 37.5 36 A 1.5000001 1.5000001 0 0 0 36.087891 37 L 30 37 L 30 44 L 30 45 L 31 45 L 44 45 L 45 45 L 45 44 L 45 31 L 45 30 L 22 30 L 22 52 L 22 53 L 52 53 L 53 53 L 53 52 L 53 24 L 53 23 L 52 23 L 25.5 23 L 33 20 L 33 19 z" transform="matrix(0.26458334,0,0,0.26458334,0,277.15623)"/></g></svg>