<svg xmlns="http://www.w3.org/2000/svg" xmlns:svg="http://www.w3.org/2000/svg" id="svg8" width="75" height="75" version="1.1" viewBox="0 0 19.844 19.844"><metadata id="metadata5"/><g id="layer1" transform="translate(0,-277.15623)"><circle style="fill:silver;stroke-width:.264583;fill-opacity:.5" id="path24-3" cx="-15.743" cy="287.078" r="1.72" transform="scale(-1,1)"/><path style="stroke-width:.989072;fill:silver;fill-opacity:1" id="rect14" d="M 37.5 8 A 7.4999998 7.4999998 0 0 0 30.015625 15 L 15 15 L 15 60 L 60 60 L 60 44.982422 A 7.4999998 7.4999998 0 0 0 67 37.5 A 7.4999998 7.4999998 0 0 0 60 30.015625 L 60 15 L 44.982422 15 A 7.4999998 7.4999998 0 0 0 37.5 8 z M 16 16 L 30.017578 16 A 7.4999998 7.4999998 0 0 0 37.5 23 A 7.4999998 7.4999998 0 0 0 44.984375 16 L 59 16 L 59 30.017578 A 7.4999998 7.4999998 0 0 0 52 37.5 A 7.4999998 7.4999998 0 0 0 59 44.984375 L 59 59 L 16 59 L 16 16 z M 59.5 31 A 6.5 6.5 0 0 1 66 37.5 A 6.5 6.5 0 0 1 59.5 44 A 6.5 6.5 0 0 1 53 37.5 A 6.5 6.5 0 0 1 59.5 31 z" transform="matrix(0.26458334,0,0,0.26458334,0,277.15623)"/><circle id="path24" cx="-9.922" cy="281.257" r="1.72" transform="scale(-1,1)" style="fill:#3daee9;stroke-width:.26458335;fill-opacity:1"/><path style="fill:#da4453;stroke-width:.4170332;fill-opacity:1" id="rect26" d="M 47 11 L 38.511719 14.394531 A 1.5000001 1.5000001 0 0 0 37.5 14 A 1.5000001 1.5000001 0 0 0 36 15.5 A 1.5000001 1.5000001 0 0 0 37.5 17 A 1.5000001 1.5000001 0 0 0 38.511719 16.605469 L 47 20 L 47 19 L 39.5 16 L 41 16 L 41 15 L 39.5 15 L 47 12 L 47 11 z M 43 15 L 43 16 L 47 16 L 47 15 L 43 15 z M 49 15 L 49 16 L 53 16 L 53 15 L 49 15 z M 55 15 L 55 16 L 59 16 L 59 20 L 60 20 L 60 15 L 55 15 z M 59 22 L 59 26 L 60 26 L 60 22 L 59 22 z M 59 28 L 59 32 L 60 32 L 60 28 L 59 28 z M 59 34 L 59 36.087891 A 1.5000001 1.5000001 0 0 0 58 37.5 A 1.5000001 1.5000001 0 0 0 59.5 39 A 1.5000001 1.5000001 0 0 0 61 37.5 A 1.5000001 1.5000001 0 0 0 60 36.087891 L 60 34 L 59 34 z" transform="matrix(0.26458334,0,0,0.26458334,0,277.15623)"/></g></svg>