<svg xmlns="http://www.w3.org/2000/svg" xmlns:svg="http://www.w3.org/2000/svg" id="svg8" width="75" height="75" version="1.1" viewBox="0 0 19.844 19.844"><metadata id="metadata5"/><g id="layer1" transform="translate(0,-277.15623)"><path style="stroke-width:.989072" id="rect14" d="M 15 15 L 15 60 L 60 60 L 60 15 L 15 15 z M 16 16 L 59 16 L 59 59 L 16 59 L 16 16 z" transform="matrix(0.26458334,0,0,0.26458334,0,277.15623)"/><path style="fill:#000;stroke-width:.999999" id="path18" d="M 51.462891 30 A 7.4999998 7.4999998 0 0 0 44 37.5 A 7.4999998 7.4999998 0 0 0 51.5 45 A 7.4999998 7.4999998 0 0 0 59 37.5 A 7.4999998 7.4999998 0 0 0 51.5 30 A 7.4999998 7.4999998 0 0 0 51.462891 30 z M 51.5 31 A 6.5 6.5 0 0 1 58 37.5 A 6.5 6.5 0 0 1 51.5 44 A 6.5 6.5 0 0 1 45 37.5 A 6.5 6.5 0 0 1 51.5 31 z" transform="matrix(0.26458334,0,0,0.26458334,0,277.15623)"/><path style="fill:#000;stroke-width:.999999" id="path22" d="M 37.5 16 A 7.4999998 7.4999998 0 0 0 30 23.5 A 7.4999998 7.4999998 0 0 0 37.5 31 A 7.4999998 7.4999998 0 0 0 45 23.5 A 7.4999998 7.4999998 0 0 0 37.5 16 z M 37.5 17 A 6.5 6.5 0 0 1 44 23.5 A 6.5 6.5 0 0 1 37.5 30 A 6.5 6.5 0 0 1 31 23.5 A 6.5 6.5 0 0 1 37.5 17 z" transform="matrix(0.26458334,0,0,0.26458334,0,277.15623)"/><circle id="path841" cx="13.626" cy="287.078" r="1.72" style="fill:silver;fill-opacity:.501961;fill-rule:evenodd;stroke:none;stroke-width:.1"/><circle style="fill:#3daee9;fill-opacity:1;fill-rule:evenodd;stroke:none;stroke-width:.1" id="path841-9" cx="9.922" cy="283.374" r="1.72"/><path id="rect26" d="M 47 19 L 38.511719 22.394531 A 1.5000001 1.5000001 0 0 0 37.5 22 A 1.5000001 1.5000001 0 0 0 36 23.5 A 1.5000001 1.5000001 0 0 0 37.5 25 A 1.5000001 1.5000001 0 0 0 38.511719 24.605469 L 47 28 L 47 27 L 39.5 24 L 51 24 L 51 36.087891 A 1.5000001 1.5000001 0 0 0 50 37.5 A 1.5000001 1.5000001 0 0 0 51.5 39 A 1.5000001 1.5000001 0 0 0 53 37.5 A 1.5000001 1.5000001 0 0 0 52 36.087891 L 52 23 L 39.5 23 L 47 20 L 47 19 z" transform="matrix(0.26458334,0,0,0.26458334,0,277.15623)" style="fill:#da4453;stroke-width:.80757487;fill-opacity:1"/></g></svg>