<svg xmlns="http://www.w3.org/2000/svg" xmlns:svg="http://www.w3.org/2000/svg" id="svg8" width="75" height="75" version="1.1" viewBox="0 0 19.844 19.844"><metadata id="metadata5"/><g id="layer1" transform="translate(0,-277.15623)"><circle style="fill:silver;stroke-width:.264583;fill-opacity:.5" id="path24-4" cx="4.101" cy="287.078" r="1.72"/><path style="stroke-width:.989072;fill:silver;fill-opacity:1" id="rect14" d="M 37.462891 8 A 7.4999998 7.4999998 0 0 0 30.017578 15 L 15 15 L 15 30.015625 A 7.4999998 7.4999998 0 0 0 8 37.5 A 7.4999998 7.4999998 0 0 0 15 44.984375 L 15 60 L 60 60 L 60 15 L 44.984375 15 A 7.4999998 7.4999998 0 0 0 37.5 8 A 7.4999998 7.4999998 0 0 0 37.462891 8 z M 16 16 L 30.015625 16 A 7.4999998 7.4999998 0 0 0 37.5 23 A 7.4999998 7.4999998 0 0 0 44.982422 16 L 59 16 L 59 59 L 16 59 L 16 44.982422 A 7.4999998 7.4999998 0 0 0 23 37.5 A 7.4999998 7.4999998 0 0 0 16 30.015625 L 16 16 z M 15.5 31 A 6.5 6.5 0 0 1 16 31.019531 A 6.5 6.5 0 0 1 22 37.5 A 6.5 6.5 0 0 1 16 43.980469 A 6.5 6.5 0 0 1 15.847656 43.990234 A 6.5 6.5 0 0 1 15.845703 43.990234 A 6.5 6.5 0 0 1 15.634766 43.998047 A 6.5 6.5 0 0 1 15.5 44 A 6.5 6.5 0 0 1 15 43.980469 A 6.5 6.5 0 0 1 9 37.5 A 6.5 6.5 0 0 1 15 31.019531 A 6.5 6.5 0 0 1 15.152344 31.009766 A 6.5 6.5 0 0 1 15.154297 31.009766 A 6.5 6.5 0 0 1 15.365234 31.001953 A 6.5 6.5 0 0 1 15.5 31 z" transform="matrix(0.26458334,0,0,0.26458334,0,277.15623)"/><circle id="path24" cx="9.922" cy="281.257" r="1.72" style="fill:#3daee9;stroke-width:.26458335;fill-opacity:1"/><path style="fill:#da4453;fill-opacity:1;stroke-width:.41702291" id="rect26" d="M 28 11 L 28 12 L 35.5 15 L 34 15 L 34 16 L 35.501953 16 L 28 19 L 28 20 L 36.488281 16.605469 A 1.5000001 1.5000001 0 0 0 37.5 17 A 1.5000001 1.5000001 0 0 0 39 15.5 A 1.5000001 1.5000001 0 0 0 37.5 14 A 1.5000001 1.5000001 0 0 0 36.488281 14.394531 L 28 11 z M 15 15 L 15 16 L 15 20 L 16 20 L 16 16 L 20 16 L 20 15 L 16 15 L 15 15 z M 22 15 L 22 16 L 26 16 L 26 15 L 22 15 z M 28 15 L 28 16 L 32 16 L 32 15 L 28 15 z M 15 22 L 15 26 L 16 26 L 16 22 L 15 22 z M 15 28 L 15 32 L 16 32 L 16 28 L 15 28 z M 15 34 L 15 36.087891 A 1.5000001 1.5000001 0 0 0 14 37.5 A 1.5000001 1.5000001 0 0 0 15.5 39 A 1.5000001 1.5000001 0 0 0 17 37.5 A 1.5000001 1.5000001 0 0 0 16 36.087891 L 16 34 L 15 34 z" transform="matrix(0.26458334,0,0,0.26458334,0,277.15623)"/></g></svg>