<svg xmlns="http://www.w3.org/2000/svg" xmlns:xlink="http://www.w3.org/1999/xlink" viewBox="0 0 22 22"><defs><path id="H" fill="url(#0)" d="m24 8c-8.863992 0-16 7.136008-16 16h16v-16"/><path id="I" fill="url(#3)" d="m408.57143 539.798c8.86399 0 16-7.13601 16-16h-16v16"/><path id="J" fill="url(#1)" d="m408.57143 539.798c-8.86399 0-16-7.13601-16-16h16v16"/><linearGradient id="3" x1="424.57" x2="408.57" y1="523.8" y2="539.8" gradientUnits="userSpaceOnUse"><stop stop-color="#c1cc00"/><stop offset=".312" stop-color="#dfcd00"/><stop offset=".562" stop-color="#f0cc00"/><stop offset=".75" stop-color="#fd8c08"/><stop offset="1" stop-color="#f25c13"/></linearGradient><linearGradient id="0" x1="8" x2="24" y1="24" y2="8" gradientUnits="userSpaceOnUse"><stop stop-color="#e81877"/><stop offset=".312" stop-color="#dd1d8c"/><stop offset=".562" stop-color="#6d57b1"/><stop offset=".75" stop-color="#2a78c1"/><stop offset="1" stop-color="#018dcb"/></linearGradient><linearGradient id="2" x1="424.57" x2="408.57" y1="523.8" y2="507.8" gradientUnits="userSpaceOnUse"><stop stop-color="#bec900"/><stop offset=".312" stop-color="#9ec80a"/><stop offset=".562" stop-color="#71b93d"/><stop offset=".75" stop-color="#35a48f"/><stop offset="1" stop-color="#018fca"/></linearGradient><linearGradient id="1" x1="392.57" x2="408.57" y1="523.8" y2="539.8" gradientUnits="userSpaceOnUse"><stop stop-color="#e51561"/><stop offset=".312" stop-color="#e4156c"/><stop offset=".562" stop-color="#e71e2c"/><stop offset=".75" stop-color="#e8301e"/><stop offset="1" stop-color="#e6320e"/></linearGradient></defs><g transform="matrix(1.24886 0 0 1.24887 -2.738 -1289.52)"><g transform="matrix(0.38637 0.10353 -0.10353 0.38637 -92.63 796.68)"><use clip-path="url(#5)" transform="matrix(1 0 0 1 384.57 499.8)" xlink:href="#H"/><use clip-path="url(#6)" xlink:href="#J"/><path fill="url(#2)" d="m408.57143 507.798c8.86399 0 16 7.13601 16 16h-16v-16" clip-path="url(#7)"/><use clip-path="url(#8)" xlink:href="#I"/></g><g opacity=".7" transform="matrix(0.4 0 0 0.4 -152.43 831.84)"><use clip-path="url(#9)" filter="url(#4)" transform="matrix(1 0 0 1 384.57 499.8)" xlink:href="#H"/><use clip-path="url(#A)" filter="url(#4)" xlink:href="#J"/><use clip-path="url(#B)" filter="url(#4)" xlink:href="#I"/><path fill="url(#2)" d="m408.57143 507.798c8.86399 0 16 7.13601 16 16h-16v-16" clip-path="url(#C)" filter="url(#4)"/></g><use clip-path="url(#9)" opacity=".35" transform="matrix(0.28284 0.28284 -0.28284 0.28284 11 1027.79)" xlink:href="#H"/><path fill="url(#1)" d="m408.57143 539.798c-8.86399 0-16-7.13601-16-16h16v16" clip-path="url(#A)" opacity=".35" transform="matrix(0.28284 0.28284 -0.28284 0.28284 43.591 777.65)"/><use clip-path="url(#B)" opacity=".35" transform="matrix(0.28284 0.28284 -0.28284 0.28284 43.591 777.65)" xlink:href="#I"/><path fill="url(#2)" d="m408.57143 507.798c8.86399 0 16 7.13601 16 16h-16v-16" clip-path="url(#C)" opacity=".35" transform="matrix(0.28284 0.28284 -0.28284 0.28284 43.591 777.65)"/><g transform="matrix(0.10353 0.38637 -0.38637 0.10353 171.08 829.27)"><use clip-path="url(#D)" opacity=".3" transform="matrix(1 0 0 1 384.57 499.8)" xlink:href="#H"/><use clip-path="url(#E)" opacity=".3" xlink:href="#J"/><use clip-path="url(#F)" opacity=".3" xlink:href="#I"/><path fill="url(#2)" d="m408.57143 507.798c8.86399 0 16 7.13601 16 16h-16v-16" clip-path="url(#G)" opacity=".3"/></g></g></svg>