<svg xmlns="http://www.w3.org/2000/svg" xmlns:svg="http://www.w3.org/2000/svg" id="svg6" version="1.1" viewBox="0 0 22 22"><metadata id="metadata10"/><defs id="defs3051"><style id="current-color-scheme" type="text/css"/></defs><path style="fill:silver;fill-opacity:1;fill-rule:evenodd;stroke:none;stroke-width:1;stroke-miterlimit:4;stroke-dasharray:none;stroke-opacity:.00427348" id="path4522" d="M 11 3 A 8 8 0 0 0 3 11 A 8 8 0 0 0 11 19 A 8 8 0 0 0 19 11 A 8 8 0 0 0 11 3 z M 11 4 A 7 7 0 0 1 18 11 A 7 7 0 0 1 11 18 A 7 7 0 0 1 4 11 A 7 7 0 0 1 11 4 z"/><circle style="fill:#da4453;fill-opacity:1;fill-rule:evenodd" id="path832" cx="11" cy="11" r="1"/><circle id="path832-9" cx="16.34" cy="5.815" r="1" style="fill:#3daee9;fill-opacity:1;fill-rule:evenodd"/></svg>