<svg xmlns="http://www.w3.org/2000/svg" xmlns:svg="http://www.w3.org/2000/svg" id="svg10" version="1.1" viewBox="0 0 16 16"><metadata id="metadata14"/><defs id="defs3051"><style id="current-color-scheme" type="text/css"/></defs><g id="g8" transform="translate(-421.71-531.79)"><path id="path4" d="M 3.6484375 3.8828125 A 6 6 0 0 0 2 8 A 6 6 0 0 0 8 14 A 6 6 0 0 0 14 8 L 13 8 A 5 5 0 0 1 8 13 A 5 5 0 0 1 3 8 A 5 5 0 0 1 4.4179688 4.5195312 L 3.6484375 3.8828125 z" transform="translate(421.71,531.79)" style="fill:silver;fill-opacity:1;stroke:none"/><circle style="fill:#3daee9;fill-opacity:1;fill-rule:evenodd;stroke-width:1" id="path841" cx="435.21" cy="539.79" r="1"/><circle id="path841-4" cx="425.71" cy="535.79" r="1" style="fill:#3daee9;fill-opacity:1;fill-rule:evenodd;stroke-width:1"/><circle id="path841-7" cx="429.71" cy="539.79" r="1" style="fill:#da4453;fill-opacity:1;fill-rule:evenodd;stroke-width:1"/></g></svg>