<svg xmlns="http://www.w3.org/2000/svg" xmlns:svg="http://www.w3.org/2000/svg" id="svg10" version="1.1" viewBox="0 0 22 22"><metadata id="metadata14"/><defs id="defs3051"><style id="current-color-scheme" type="text/css"/></defs><path id="rect823" d="M 3 3 L 3 19 L 19 19 L 19 3 L 3 3 z M 4 4 L 18 4 L 18 18 L 4 18 L 4 4 z" style="fill:silver;fill-opacity:1;stroke:none;stroke-opacity:1"/><path id="path828" d="m 6,6 v 4 h 9 v 2 H 6 v 4 H 16 V 15 H 7 v -2 h 9 V 9 H 7 V 7 h 6.054688 C 13.019696,6.8355956 13.001374,6.6680813 13,6.5 13.000089,6.3320507 13.0171,6.1645378 13.05078,6 Z" style="color:#000;font-style:normal;font-variant:normal;font-weight:400;font-stretch:normal;font-size:medium;line-height:normal;font-family:sans-serif;font-variant-ligatures:normal;font-variant-position:normal;font-variant-caps:normal;font-variant-numeric:normal;font-variant-alternates:normal;font-feature-settings:normal;text-indent:0;text-align:start;text-decoration:none;text-decoration-line:none;text-decoration-style:solid;text-decoration-color:#000;letter-spacing:normal;word-spacing:normal;text-transform:none;writing-mode:lr-tb;direction:ltr;text-orientation:mixed;dominant-baseline:auto;baseline-shift:baseline;text-anchor:start;white-space:normal;shape-padding:0;clip-rule:nonzero;display:inline;overflow:visible;visibility:visible;opacity:1;isolation:auto;mix-blend-mode:normal;color-interpolation:sRGB;color-interpolation-filters:linearRGB;solid-color:#000;solid-opacity:1;vector-effect:none;fill:#da4453;fill-opacity:1;fill-rule:nonzero;stroke:none;stroke-width:1px;stroke-linecap:butt;stroke-linejoin:miter;stroke-miterlimit:4;stroke-dasharray:none;stroke-dashoffset:0;stroke-opacity:1;color-rendering:auto;image-rendering:auto;shape-rendering:auto;text-rendering:auto;enable-background:accumulate"/><path id="path834" d="M 15.5 4 A 2.5 2.5 0 0 0 13 6.5 A 2.5 2.5 0 0 0 15.5 9 A 2.5 2.5 0 0 0 18 6.5 A 2.5 2.5 0 0 0 15.5 4 z M 15.5 5 A 1.5 1.5 0 0 1 17 6.5 A 1.5 1.5 0 0 1 15.5 8 A 1.5 1.5 0 0 1 14 6.5 A 1.5 1.5 0 0 1 15.5 5 z" style="fill:#3daee9;fill-opacity:1;stroke:none;stroke-opacity:1"/></svg>