<svg xmlns="http://www.w3.org/2000/svg" xmlns:svg="http://www.w3.org/2000/svg" id="svg8" version="1.1" viewBox="0 0 22 22"><metadata id="metadata12"/><defs id="defs3051"><style id="current-color-scheme" type="text/css"/></defs><path id="path4" d="M 18 3 C 18 6.0558068 16.037252 8.9570652 13.306641 10.041016 A 2.5 2.5 0 0 1 13.5 11 A 2.5 2.5 0 0 1 13.498047 11.039062 C 16.691636 9.863068 19 6.5446983 19 3 L 18 3 z M 7 4 L 5 5.5 L 7 7 L 7 6 L 12 6 L 12 5 L 7 5 L 7 4 z M 8.5019531 10.960938 C 5.3083637 12.136933 3 15.455328 3 19 L 4 19 C 4 15.944193 5.9627476 13.042935 8.6933594 11.958984 A 2.5 2.5 0 0 1 8.5 11 A 2.5 2.5 0 0 1 8.5019531 10.960938 z M 15 15 L 15 16 L 10 16 L 10 17 L 15 17 L 15 18 L 17 16.5 L 15 15 z" style="fill:silver;fill-opacity:1;stroke:none"/><path id="path827" d="M 11 8.5 A 2.5 2.5 0 0 0 8.5 11 A 2.5 2.5 0 0 0 11 13.5 A 2.5 2.5 0 0 0 13.5 11 A 2.5 2.5 0 0 0 11 8.5 z M 11 9.5 A 1.5 1.5 0 0 1 12.5 11 A 1.5 1.5 0 0 1 11 12.5 A 1.5 1.5 0 0 1 9.5 11 A 1.5 1.5 0 0 1 11 9.5 z" style="fill:#3daee9;fill-opacity:1;stroke:none;stroke-opacity:1"/></svg>