<svg xmlns="http://www.w3.org/2000/svg" xmlns:svg="http://www.w3.org/2000/svg" id="svg10" version="1.1" viewBox="0 0 24 24"><metadata id="metadata14"/><defs id="defs3051"><style id="current-color-scheme" type="text/css"/></defs><path id="rect823" d="M 20,4 V 20 H 4 V 4 Z M 19,5 H 5 v 14 h 14 z" style="fill:silver;fill-opacity:1;stroke:none;stroke-opacity:1"/><path id="path830" d="M 14.054688,7 A 2.5,2.5 0 0 0 14,7.5 2.5,2.5 0 0 0 14.050781,8 H 8 v 8 h 8 v -5 h -5 v 2 h 3 v 1 h -4 v -4 h 6.5 0.5 v 7 H 7 V 7 Z" style="color:#000;font-style:normal;font-variant:normal;font-weight:400;font-stretch:normal;font-size:medium;line-height:normal;font-family:sans-serif;font-variant-ligatures:normal;font-variant-position:normal;font-variant-caps:normal;font-variant-numeric:normal;font-variant-alternates:normal;font-feature-settings:normal;text-indent:0;text-align:start;text-decoration:none;text-decoration-line:none;text-decoration-style:solid;text-decoration-color:#000;letter-spacing:normal;word-spacing:normal;text-transform:none;writing-mode:lr-tb;direction:ltr;text-orientation:mixed;dominant-baseline:auto;baseline-shift:baseline;text-anchor:start;white-space:normal;shape-padding:0;clip-rule:nonzero;display:inline;overflow:visible;visibility:visible;opacity:1;isolation:auto;mix-blend-mode:normal;color-interpolation:sRGB;color-interpolation-filters:linearRGB;solid-color:#000;solid-opacity:1;vector-effect:none;fill:#da4453;fill-opacity:1;fill-rule:nonzero;stroke:none;stroke-width:1px;stroke-linecap:butt;stroke-linejoin:miter;stroke-miterlimit:4;stroke-dasharray:none;stroke-dashoffset:0;stroke-opacity:1;color-rendering:auto;image-rendering:auto;shape-rendering:auto;text-rendering:auto;enable-background:accumulate"/><path id="path837" d="M 16.5,5 A 2.5,2.5 0 0 1 19,7.5 2.5,2.5 0 0 1 16.5,10 2.5,2.5 0 0 1 14,7.5 2.5,2.5 0 0 1 16.5,5 Z m 0,1 A 1.5,1.5 0 0 0 15,7.5 1.5,1.5 0 0 0 16.5,9 1.5,1.5 0 0 0 18,7.5 1.5,1.5 0 0 0 16.5,6 Z" style="fill:#3daee9;fill-opacity:1;stroke:none;stroke-opacity:1"/></svg>