<svg xmlns="http://www.w3.org/2000/svg" xmlns:svg="http://www.w3.org/2000/svg" id="svg8" version="1.1" viewBox="0 0 24 24"><metadata id="metadata12"/><defs id="defs3051"><style id="current-color-scheme" type="text/css"/></defs><path id="rect892" d="M 7 7 L 7 17 L 17 17 L 17 7 L 7 7 z M 8 8 L 16 8 L 16 16 L 8 16 L 8 8 z" style="fill:silver;fill-opacity:1;stroke:none;stroke-opacity:1"/><rect id="rect897" width="8" height="8" x="8" y="8" style="fill:silver;fill-opacity:.50196081;stroke:none;stroke-opacity:1"/><path id="path1006" d="M 5.5 3 A 2.5 2.5 0 0 0 3 5.5 A 2.5 2.5 0 0 0 5.5 8 A 2.5 2.5 0 0 0 8 5.5 A 2.5 2.5 0 0 0 5.5 3 z M 18.5 3 A 2.5 2.5 0 0 0 16 5.5 A 2.5 2.5 0 0 0 18.322266 7.9941406 A 2.5 2.5 0 0 0 18.5 8 A 2.5 2.5 0 0 0 21 5.5 A 2.5 2.5 0 0 0 18.5 3 z M 5.5 4 A 1.5 1.5 0 0 1 7 5.5 L 5.5 5.5 L 5.5 7 A 1.5 1.5 0 0 1 4 5.5 L 5.5 5.5 L 5.5 4 z M 18.5 4 L 18.5 5.5 L 20 5.5 A 1.5 1.5 0 0 1 18.5 7 L 18.5 5.5 L 17 5.5 A 1.5 1.5 0 0 1 18.5 4 z M 5.5 16 A 2.5 2.5 0 0 0 3 18.5 A 2.5 2.5 0 0 0 5.5 21 A 2.5 2.5 0 0 0 8 18.5 A 2.5 2.5 0 0 0 5.5 16 z M 18.5 16 A 2.5 2.5 0 0 0 16.005859 18.322266 A 2.5 2.5 0 0 0 16 18.5 A 2.5 2.5 0 0 0 18.5 21 A 2.5 2.5 0 0 0 21 18.5 A 2.5 2.5 0 0 0 18.5 16 z M 5.5 17 L 5.5 18.5 L 7 18.5 A 1.5 1.5 0 0 1 5.5 20 L 5.5 18.5 L 4 18.5 A 1.5 1.5 0 0 1 5.5 17 z M 18.5 17 A 1.5 1.5 0 0 1 20 18.5 L 18.5 18.5 L 18.5 20 A 1.5 1.5 0 0 1 17 18.5 L 18.5 18.5 L 18.5 17 z" style="fill:#da4453;fill-opacity:1;stroke:none;stroke-opacity:1"/><circle id="path1016" cx="18.5" cy="18.5" r="0" style="fill:#da4453;fill-opacity:1;stroke:none;stroke-opacity:1"/></svg>