<svg xmlns="http://www.w3.org/2000/svg" xmlns:svg="http://www.w3.org/2000/svg" id="svg6" version="1.1" viewBox="0 0 24 24"><metadata id="metadata10"/><defs id="defs3051"><style id="current-color-scheme" type="text/css"/></defs><circle id="path839" cx="12" cy="12" r="5" style="fill:silver;fill-opacity:.50196081;stroke:none"/><path id="path819" d="M 13 4.0703125 L 13 5.0800781 A 7 7 0 0 1 18.921875 11 L 19.929688 11 A 8 8 0 0 0 13 4.0703125 z M 11 4.0722656 A 8 8 0 0 0 4.0722656 11 L 5.0800781 11 A 7 7 0 0 1 11 5.078125 L 11 4.0722656 z M 4.0703125 13 A 8 8 0 0 0 11 19.929688 L 11 18.919922 A 7 7 0 0 1 5.078125 13 L 4.0703125 13 z M 18.919922 13 A 7 7 0 0 1 13 18.921875 L 13 19.927734 A 8 8 0 0 0 19.927734 13 L 18.919922 13 z" style="fill:#da4453;fill-opacity:1;stroke:none"/><path id="path833" d="M 12 7 A 5 5 0 0 0 7 12 A 5 5 0 0 0 12 17 A 5 5 0 0 0 17 12 A 5 5 0 0 0 12 7 z M 12 8 A 3.9999997 3.9999999 0 0 1 16 12 A 3.9999997 3.9999999 0 0 1 12 16 A 3.9999997 3.9999999 0 0 1 8 12 A 3.9999997 3.9999999 0 0 1 12 8 z" style="fill:silver;fill-opacity:1;stroke:none;stroke-width:.83333337"/></svg>