<svg xmlns="http://www.w3.org/2000/svg" xmlns:svg="http://www.w3.org/2000/svg" id="svg8" version="1.1" viewBox="0 0 24 24"><metadata id="metadata12"/><defs id="defs3051"><style id="current-color-scheme" type="text/css"/></defs><path id="path4" d="M 19 4 C 19 7.168834 16.888981 10.168312 14 11.150391 L 14 12.197266 C 17.448101 11.197003 20 7.7258088 20 4 L 19 4 z M 8 5 L 6 6.5 L 8 8 L 8 7 L 13 7 L 13 6 L 8 6 L 8 5 z M 10 11.802734 C 6.5518996 12.803002 4 16.27421 4 20 L 5 20 C 5 16.831172 7.1110194 13.83169 10 12.849609 L 10 11.802734 z M 16 16 L 16 17 L 11 17 L 11 18 L 16 18 L 16 19 L 18 17.5 L 16 16 z" style="fill:silver;fill-opacity:1;stroke:none"/><path id="path830" d="M 12 9.5 A 2.5 2.5 0 0 0 9.5 12 A 2.5 2.5 0 0 0 12 14.5 A 2.5 2.5 0 0 0 14.5 12 A 2.5 2.5 0 0 0 12 9.5 z M 12 10.576172 A 1.5 1.4248044 0 0 1 13.5 12 A 1.5 1.4248044 0 0 1 12 13.423828 A 1.5 1.4248044 0 0 1 10.5 12 A 1.5 1.4248044 0 0 1 12 10.576172 z" style="fill:#3daee9;fill-opacity:1;stroke:none;stroke-opacity:1"/></svg>