<svg xmlns="http://www.w3.org/2000/svg" xmlns:svg="http://www.w3.org/2000/svg" id="svg6" version="1.1" viewBox="0 0 24 24"><metadata id="metadata10"/><defs id="defs3051"><style id="current-color-scheme" type="text/css"/></defs><path id="path914" d="m 9,4 v 1 h 2 V 4 Z" style="fill:silver;fill-opacity:1;stroke:none;stroke-opacity:1"/><path id="path910" d="m 13,4 v 1 h 2 V 4 Z" style="fill:silver;fill-opacity:1;stroke:none;stroke-opacity:1"/><path id="path906" d="m 17,4 v 1 h 2 v 2 h 1 V 4 Z" style="fill:silver;fill-opacity:1;stroke:none;stroke-opacity:1"/><path id="path902" d="m 20,9 h -1 v 2 h 1 z" style="fill:silver;fill-opacity:1;stroke:none;stroke-opacity:1"/><path id="path898" d="m 20,13 h -1 v 2 h 1 z" style="fill:silver;fill-opacity:1;stroke:none;stroke-opacity:1"/><path id="path894" d="m 20,17 h -1 v 2 h -2 v 1 h 3 z" style="fill:silver;fill-opacity:1;stroke:none;stroke-opacity:1"/><path id="path890" d="M 13 19 L 13 20 L 15 20 L 15 19 L 13 19 z" style="fill:silver;fill-opacity:1;stroke:none;stroke-opacity:1"/><path id="path874" d="M 7,5 V 4 H 4 V 7 H 5 V 5 Z" style="fill:silver;fill-opacity:1;stroke:none;stroke-opacity:1"/><path id="path870" d="M 4 9 L 4 11 L 5 11 L 5 9 L 4 9 z" style="fill:silver;fill-opacity:1;stroke:none;stroke-opacity:1"/><path id="rect832" d="M 4 14 L 4 20 L 10 20 L 10 14 L 4 14 z M 5 15 L 9 15 L 9 19 L 5 19 L 5 15 z" style="fill:silver;fill-opacity:1;stroke:none;stroke-opacity:1"/><path id="rect840" d="M 13 7 L 13 8 L 15.292969 8 L 11.646484 11.646484 L 12.353516 12.353516 L 16 8.7070312 L 16 11 L 17 11 L 17 7 L 13 7 z" style="fill:silver;fill-opacity:1;stroke:none;stroke-width:.80000001;stroke-opacity:1"/><rect id="rect824" width="4" height="4" x="5" y="15" style="fill:silver;fill-opacity:.50196078;stroke:none;stroke-opacity:1"/></svg>