<svg xmlns="http://www.w3.org/2000/svg" xmlns:svg="http://www.w3.org/2000/svg" id="svg6" version="1.1" viewBox="0 0 24 24"><metadata id="metadata10"/><defs id="defs3051"><style id="current-color-scheme" type="text/css"/></defs><path id="rect820" d="M 5 5 L 5 14 L 10 14 L 10 19 L 19 19 L 19 5 L 5 5 z" style="fill:silver;fill-opacity:.50196078;stroke:none;stroke-opacity:1"/><path id="rect827" d="M 4 4 L 4 12 L 5 12 L 5 5 L 19 5 L 19 19 L 12 19 L 12 20 L 20 20 L 20 4 L 4 4 z" style="fill:silver;fill-opacity:1;stroke:none;stroke-width:1.03279555"/><path id="rect848" d="M 4 18 L 4 20 L 6 20 L 6 19 L 5 19 L 5 18 L 4 18 z" style="fill:silver;fill-opacity:1;stroke:none"/><path id="rect850" d="M 4 14 L 4 16 L 5 16 L 5 15 L 6 15 L 6 14 L 4 14 z" style="fill:silver;fill-opacity:1;stroke:none"/><path id="rect852" d="M 8 14 L 8 15 L 9 15 L 9 16 L 10 16 L 10 14 L 8 14 z" style="fill:silver;fill-opacity:1;stroke:none"/><path id="rect854" d="M 9 18 L 9 19 L 8 19 L 8 20 L 10 20 L 10 18 L 9 18 z" style="fill:silver;fill-opacity:1;stroke:none"/><path id="rect896" d="M 15.646484 7.6464844 L 12 11.292969 L 12 9 L 11 9 L 11 13 L 15 13 L 15 12 L 12.707031 12 L 16.353516 8.3535156 L 15.646484 7.6464844 z" style="fill:silver;fill-opacity:1;stroke:none;stroke-width:1.33333337"/></svg>