<svg xmlns="http://www.w3.org/2000/svg" xmlns:svg="http://www.w3.org/2000/svg" id="svg6" version="1.1" viewBox="0 0 24 24"><metadata id="metadata10"/><defs id="defs3051"><style id="current-color-scheme" type="text/css"/></defs><path id="path872" d="M 4,4 V 5 8 H 5 V 5 H 8 V 4 H 5 Z" style="fill:silver;fill-opacity:1;stroke:none"/><path id="path870" d="m 16,4 v 1 h 3 v 3 h 1 V 4 Z" style="fill:silver;fill-opacity:1;stroke:none"/><path id="path866" d="M 7 7 L 7 17 L 17 17 L 17 7 L 7 7 z M 8 8 L 16 8 L 16 16 L 8 16 L 8 8 z" style="fill:silver;fill-opacity:1;stroke:none;stroke-width:2"/><path id="path852" d="m 4,16 v 4 H 5 8 V 19 H 5 v -3 z" style="fill:silver;fill-opacity:1;stroke:none"/><path id="path4" d="m 19,16 v 3 h -3 v 1 h 4 v -1 -3 z" style="fill:silver;fill-opacity:1;stroke:none"/><path id="path821" d="m 10,6 h 4 L 12,4" style="fill:silver;fill-opacity:1;stroke:none;stroke-width:1px;stroke-linecap:butt;stroke-linejoin:miter;stroke-opacity:1"/><path id="path821-6" d="m 18,10 v 4 l 2,-2" style="fill:silver;fill-opacity:1;stroke:none;stroke-width:1px;stroke-linecap:butt;stroke-linejoin:miter;stroke-opacity:1"/><path id="path821-7" d="M 6,14 V 10 L 4,12" style="fill:silver;fill-opacity:1;stroke:none;stroke-width:1px;stroke-linecap:butt;stroke-linejoin:miter;stroke-opacity:1"/><path id="path821-3" d="m 10,18 h 4 l -2,2" style="fill:silver;fill-opacity:1;stroke:none;stroke-width:1px;stroke-linecap:butt;stroke-linejoin:miter;stroke-opacity:1"/><rect id="rect825" width="8" height="8" x="8" y="8" style="fill:silver;fill-opacity:.50196078;stroke:none;stroke-opacity:1"/></svg>