<svg xmlns="http://www.w3.org/2000/svg" xmlns:svg="http://www.w3.org/2000/svg" id="svg8" width="75" height="75" version="1.1" viewBox="0 0 19.844 19.844"><metadata id="metadata5"/><g id="layer1" transform="translate(0,-277.15623)"><rect id="rect14" width="11.906" height="11.906" x="-15.875" y="281.125" transform="scale(-1,1)" style="stroke-width:.26169172"/><rect id="rect16" width="11.377" height="11.377" x="-15.61" y="281.39" transform="scale(-1,1)" style="fill:#fff;stroke-width:.26155958"/><path style="fill:red;fill-opacity:1;stroke:none;stroke-width:5.57354212;stroke-miterlimit:4;stroke-dasharray:none;stroke-opacity:1" id="rect4585-9" d="m 6.3500002,283.77081 v 0.26459 h 6.8791668 v 1.85208 H 6.3500002 v 2.38125 h 6.8791668 v 1.85208 H 6.3500002 v 0.26459 H 13.49375 v -2.38125 H 6.6145832 v -1.85209 H 13.49375 v -2.38125 z"/><rect style="fill:red;fill-opacity:1;stroke:none;stroke-width:3.09158969;stroke-miterlimit:4;stroke-dasharray:none;stroke-opacity:1" id="rect4727" width="4.233" height=".265" x="5.821" y="283.242"/><circle style="fill:#000;stroke-width:.26458335" id="path22" cx="-9.922" cy="283.374" r="1.984" transform="scale(-1,1)"/><circle style="fill:#fc0;stroke-width:.26458335" id="path24" cx="-9.922" cy="283.374" r="1.72" transform="scale(-1,1)"/><path style="fill:red;fill-opacity:1;stroke:none;stroke-width:16;stroke-miterlimit:4;stroke-dasharray:none;stroke-opacity:1" id="rect4559" d="m 47,19 -8.488281,3.394531 C 38.235589,22.14128 37.874678,22.000538 37.5,22 36.671573,22 36,22.671573 36,23.5 c 0,0.828427 0.671573,1.5 1.5,1.5 0.374678,-5.38e-4 0.735589,-0.14128 1.011719,-0.394531 L 47,28 V 27 L 39.5,24 H 52 l 0,27 H 23 l 0,-28 h -1 l 0,29 h 31 c 0,0 0,-19 0,-29 H 39.5 L 47,20 Z" transform="matrix(0.26458334,0,0,0.26458334,0,277.15623)"/><rect style="fill:red;fill-opacity:1;stroke:none;stroke-width:1.33869779;stroke-miterlimit:4;stroke-dasharray:none;stroke-opacity:1" id="rect4727-3" width=".794" height=".265" x="8.467" y="283.242"/></g></svg>