<svg xmlns="http://www.w3.org/2000/svg" xmlns:svg="http://www.w3.org/2000/svg" id="svg8" width="75" height="75" version="1.1" viewBox="0 0 19.844 19.844"><metadata id="metadata5"/><g id="layer1" transform="translate(0,-277.15623)"><rect id="rect14" width="11.906" height="11.906" x="3.969" y="281.125" style="stroke-width:.26169172"/><rect id="rect16" width="11.377" height="11.377" x="4.233" y="281.39" style="fill:#fff;stroke-width:.26155958"/><path style="fill:red;fill-opacity:1;stroke:none;stroke-width:14.00949669;stroke-miterlimit:4;stroke-dasharray:none;stroke-opacity:1" id="rect4555" d="M 22 23 L 22 52 L 22 53 L 23 53 L 53 53 L 53 52 L 53 30 L 30 30 L 30 31 L 30 44 L 30 45 L 31 45 L 45 45 L 45 44 L 31 44 L 31 31 L 52 31 L 52 52 L 23 52 L 23 23 L 22 23 z" transform="matrix(0.26458334,0,0,0.26458334,0,277.15623)"/><circle style="fill:#000;stroke-width:.26458335" id="path22" cx="13.626" cy="283.374" r="1.984"/><circle style="fill:#fc0;stroke-width:.26458335" id="path24" cx="13.626" cy="283.374" r="1.72"/><path style="fill:red;stroke-width:1.14208043" id="rect28" d="M 42 19 L 42 20 L 49.5 23 L 22 23 L 22 24 L 49.501953 24 L 42 27 L 42 28 L 50.488281 24.605469 A 1.5000001 1.5000001 0 0 0 51.5 25 A 1.5000001 1.5000001 0 0 0 53 23.5 A 1.5000001 1.5000001 0 0 0 51.5 22 A 1.5000001 1.5000001 0 0 0 50.488281 22.394531 L 42 19 z" transform="matrix(0.26458334,0,0,0.26458334,0,277.15623)"/><circle style="fill:#fea;stroke-width:.26458335" id="path20" cx="9.922" cy="287.078" r="1.72"/><path style="fill:#000;stroke-width:.26458335" id="path18" d="m 9.9218755,285.09373 a 1.984375,1.984375 0 0 0 -1.984375,1.98437 1.984375,1.984375 0 0 0 1.984375,1.98438 1.984375,1.984375 0 0 0 1.9843755,-1.98438 1.984375,1.984375 0 0 0 -1.9843755,-1.98437 z m 0,0.26458 a 1.7197917,1.7197917 0 0 1 1.7197925,1.71979 1.7197917,1.7197917 0 0 1 -1.7197925,1.71979 1.7197917,1.7197917 0 0 1 -1.7197917,-1.71979 1.7197917,1.7197917 0 0 1 1.7197917,-1.71979 z"/><path style="fill:red;fill-opacity:1;stroke:none;stroke-width:16;stroke-miterlimit:4;stroke-dasharray:none;stroke-opacity:1" id="path4529" d="M 37.5 36 A 1.5000001 1.5000001 0 0 0 36 37.5 A 1.5000001 1.5000001 0 0 0 37.5 39 A 1.5000001 1.5000001 0 0 0 38.912109 38 L 44 38 L 44 45 L 45 45 L 45 37 L 38.912109 37 A 1.5000001 1.5000001 0 0 0 37.5 36 z" transform="matrix(0.26458334,0,0,0.26458334,0,277.15623)"/></g></svg>