<svg xmlns="http://www.w3.org/2000/svg" xmlns:svg="http://www.w3.org/2000/svg" id="svg8" width="75" height="75" version="1.1" viewBox="0 0 19.844 19.844"><metadata id="metadata5"/><g id="layer1" transform="translate(0,-277.15623)"><rect id="rect14" width="11.906" height="11.906" x="3.969" y="281.125" style="stroke-width:.26169172"/><rect id="rect16" width="11.377" height="11.377" x="4.233" y="281.39" style="fill:#fff;stroke-width:.26155958"/><path style="fill:red;fill-opacity:1;stroke:none;stroke-width:5.57354212;stroke-miterlimit:4;stroke-dasharray:none;stroke-opacity:1" id="rect4585-9" d="m 6.35,283.77075 v 0.26459 h 6.879166 v 1.85208 H 6.35 v 2.38125 h 6.879166 v 1.85208 H 6.35 v 0.26459 h 7.14375 v -2.38125 H 6.614583 V 286.152 h 6.879167 v -2.38125 z"/><rect style="fill:red;fill-opacity:1;stroke:none;stroke-width:3.09158969;stroke-miterlimit:4;stroke-dasharray:none;stroke-opacity:1" id="rect4727" width="4.233" height=".265" x="-14.023" y="283.242" transform="scale(-1,1)"/><circle style="fill:#000;stroke-width:.26458335" id="path22" cx="9.922" cy="283.374" r="1.984"/><circle style="fill:#fc0;stroke-width:.26458335" id="path24" cx="9.922" cy="283.374" r="1.72"/><path style="fill:red;fill-opacity:1;stroke:none;stroke-width:4.23333359;stroke-miterlimit:4;stroke-dasharray:none;stroke-opacity:1" id="rect4559" d="m 7.408333,282.18325 2.245858,0.89814 c 0.07306,-0.067 0.16855,-0.10424 0.2676837,-0.10439 0.2191883,0 0.3968753,0.17769 0.3968753,0.39688 0,0.21919 -0.177687,0.39687 -0.3968753,0.39687 -0.099134,-1.4e-4 -0.1946247,-0.0374 -0.2676837,-0.10438 l -2.245858,0.89813 v -0.26458 l 1.984375,-0.79375 H 6.085416 v 7.14375 h 7.672917 v -7.40833 h 0.264584 v 7.67291 H 5.820833 c 0,0 0,-5.02708 0,-7.67291 h 3.571875 l -1.984375,-0.79375 z"/><rect style="fill:red;fill-opacity:1;stroke:none;stroke-width:1.33869779;stroke-miterlimit:4;stroke-dasharray:none;stroke-opacity:1" id="rect4727-3" width=".794" height=".265" x="-11.377" y="283.242" transform="scale(-1,1)"/></g></svg>