<svg xmlns="http://www.w3.org/2000/svg" xmlns:svg="http://www.w3.org/2000/svg" id="svg8" width="75" height="75" version="1.1" viewBox="0 0 19.844 19.844"><metadata id="metadata5"/><g id="layer1" transform="translate(0,-277.15623)"><rect id="rect14" width="11.906" height="11.906" x="-15.875" y="281.125" transform="scale(-1,1)" style="stroke-width:.26169172"/><rect id="rect16" width="11.377" height="11.377" x="-15.61" y="281.39" transform="scale(-1,1)" style="fill:#fff;stroke-width:.26155958"/><path style="fill:red;fill-opacity:1;stroke:none;stroke-width:14.00949669;stroke-miterlimit:4;stroke-dasharray:none;stroke-opacity:1" id="rect4555" d="M 52 23 L 52 52 L 23 52 L 23 31 L 44 31 L 44 44 L 30 44 L 30 45 L 44 45 L 45 45 L 45 44 L 45 31 L 45 30 L 22 30 L 22 52 L 22 53 L 52 53 L 53 53 L 53 52 L 53 23 L 52 23 z" transform="matrix(0.26458334,0,0,0.26458334,0,277.15623)"/><circle style="fill:#000;stroke-width:.26458335" id="path22" cx="-6.218" cy="283.374" r="1.984" transform="scale(-1,1)"/><circle style="fill:#fc0;stroke-width:.26458335" id="path24" cx="-6.218" cy="283.374" r="1.72" transform="scale(-1,1)"/><path style="fill:red;stroke-width:.30217546" id="rect28" d="m 8.7312497,282.18331 v 0.26459 l -1.984375,0.79375 h 7.2760423 v 0.26458 H 6.7463579 l 1.9848918,0.79375 v 0.26458 L 6.485392,283.66643 a 0.39687504,0.39687504 0 0 1 -0.267684,0.10438 0.39687504,0.39687504 0 0 1 -0.396875,-0.39687 0.39687504,0.39687504 0 0 1 0.396875,-0.39688 0.39687504,0.39687504 0 0 1 0.267684,0.10439 z"/><circle style="fill:#fea;stroke-width:.26458335" id="path20" cx="-9.922" cy="287.078" r="1.72" transform="scale(-1,1)"/><path style="fill:#000;stroke-width:.26458335" id="path18" d="m 9.9218745,285.09373 a 1.984375,1.984375 0 0 1 1.9843745,1.98437 1.984375,1.984375 0 0 1 -1.9843745,1.98438 1.984375,1.984375 0 0 1 -1.9843755,-1.98438 1.984375,1.984375 0 0 1 1.9843755,-1.98437 z m 0,0.26458 a 1.7197917,1.7197917 0 0 0 -1.7197925,1.71979 1.7197917,1.7197917 0 0 0 1.7197925,1.71979 1.7197917,1.7197917 0 0 0 1.7197915,-1.71979 1.7197917,1.7197917 0 0 0 -1.7197915,-1.71979 z"/><path style="fill:red;fill-opacity:1;stroke:none;stroke-width:4.23333359;stroke-miterlimit:4;stroke-dasharray:none;stroke-opacity:1" id="path4529" d="m 9.9218747,286.68123 a 0.39687504,0.39687504 0 0 1 0.3968753,0.39688 0.39687504,0.39687504 0 0 1 -0.3968753,0.39687 0.39687504,0.39687504 0 0 1 -0.3736205,-0.26458 H 8.202083 v 1.85208 H 7.9374997 v -2.11667 h 1.6107545 a 0.39687504,0.39687504 0 0 1 0.3736205,-0.26458 z"/></g></svg>