<svg xmlns="http://www.w3.org/2000/svg" xmlns:svg="http://www.w3.org/2000/svg" id="svg8" width="75" height="75" version="1.1" viewBox="0 0 19.844 19.844"><metadata id="metadata5"/><g id="layer1" transform="translate(0,-277.15623)"><rect id="rect14" width="11.906" height="11.906" x="-15.875" y="281.125" transform="scale(-1,1)" style="stroke-width:.26169172"/><rect id="rect16" width="11.377" height="11.377" x="-15.61" y="281.39" transform="scale(-1,1)" style="fill:#fff;stroke-width:.26155958"/><circle style="fill:#000;stroke-width:.26458335" id="path18" cx="-15.743" cy="287.078" r="1.984" transform="scale(-1,1)"/><circle style="fill:#fea;stroke-width:.26458335" id="path20" cx="-15.743" cy="287.078" r="1.72" transform="scale(-1,1)"/><circle style="fill:#000;stroke-width:.26458335" id="path22" cx="-9.922" cy="281.257" r="1.984" transform="scale(-1,1)"/><circle style="fill:#fc0;stroke-width:.26458335" id="path24" cx="-9.922" cy="281.257" r="1.72" transform="scale(-1,1)"/><path style="fill:red;stroke-width:.4170332" id="rect26" d="M 59 34 L 59 36.087891 A 1.5000001 1.5000001 0 0 0 58 37.5 A 1.5000001 1.5000001 0 0 0 59.5 39 A 1.5000001 1.5000001 0 0 0 61 37.5 A 1.5000001 1.5000001 0 0 0 60 36.087891 L 60 34 L 59 34 z" transform="matrix(0.26458334,0,0,0.26458334,0,277.15623)"/><path style="fill:red;stroke-width:.4170289" id="rect28" d="M 47 11 L 38.511719 14.394531 A 1.5000001 1.5000001 0 0 0 37.5 14 A 1.5000001 1.5000001 0 0 0 36 15.5 A 1.5000001 1.5000001 0 0 0 37.5 17 A 1.5000001 1.5000001 0 0 0 38.511719 16.605469 L 47 20 L 47 19 L 39.5 16 L 41 16 L 41 15 L 39.5 15 L 47 12 L 47 11 z" transform="matrix(0.26458334,0,0,0.26458334,0,277.15623)"/><rect style="fill:red;stroke-width:.11034004" id="rect26-6" width=".265" height="1.058" x="-15.875" y="284.565" transform="scale(-1,1)"/><rect style="fill:red;stroke-width:.11034004" id="rect26-6-4" width=".265" height="1.058" x="-15.875" y="282.977" transform="scale(-1,1)"/><rect style="fill:red;stroke-width:.12336435" id="rect26-6-4-2" width=".265" height="1.323" x="-15.875" y="281.125" transform="scale(-1,1)"/><rect style="fill:red;stroke-width:.1103389" id="rect28-7" width="1.058" height=".265" x="-12.435" y="281.125" transform="scale(-1,1)"/><rect style="fill:red;stroke-width:.1103389" id="rect28-7-2" width="1.058" height=".265" x="-14.023" y="281.125" transform="scale(-1,1)"/><rect style="fill:red;stroke-width:.12336262" id="rect28-7-2-2" width="1.323" height=".265" x="-15.875" y="281.125" transform="scale(-1,1)"/></g></svg>