<svg xmlns="http://www.w3.org/2000/svg" xmlns:svg="http://www.w3.org/2000/svg" id="svg8" width="75" height="75" version="1.1" viewBox="0 0 19.844 19.844"><metadata id="metadata5"/><g id="layer1" transform="translate(0,-277.15623)"><rect id="rect14" width="11.906" height="11.906" x="3.969" y="281.125" style="stroke-width:.26169172"/><rect id="rect16" width="11.377" height="11.377" x="4.233" y="281.39" style="fill:#fff;stroke-width:.26155958"/><circle style="fill:#000;stroke-width:.26458335" id="path18" cx="6.218" cy="287.078" r="1.984"/><circle style="fill:#fea;stroke-width:.26458335" id="path20" cx="6.218" cy="287.078" r="1.72"/><circle style="fill:#000;stroke-width:.26458335" id="path22" cx="9.922" cy="283.374" r="1.984"/><circle style="fill:#fc0;stroke-width:.26458335" id="path24" cx="9.922" cy="283.374" r="1.72"/><path style="fill:red;stroke-width:.80757487" id="rect26" d="M 28 19 L 28 20 L 35.5 23 L 23 23 L 23 24 L 23 36.087891 A 1.5000001 1.5000001 0 0 0 22 37.5 A 1.5000001 1.5000001 0 0 0 23.5 39 A 1.5000001 1.5000001 0 0 0 25 37.5 A 1.5000001 1.5000001 0 0 0 24 36.087891 L 24 24 L 35.501953 24 L 28 27 L 28 28 L 36.488281 24.605469 A 1.5000001 1.5000001 0 0 0 37.5 25 A 1.5000001 1.5000001 0 0 0 39 23.5 A 1.5000001 1.5000001 0 0 0 37.5 22 A 1.5000001 1.5000001 0 0 0 36.488281 22.394531 L 28 19 z" transform="matrix(0.26458334,0,0,0.26458334,0,277.15623)"/></g></svg>