<svg xmlns="http://www.w3.org/2000/svg" xmlns:svg="http://www.w3.org/2000/svg" id="svg8" width="75" height="75" version="1.1" viewBox="0 0 19.844 19.844"><metadata id="metadata5"/><g id="layer1" transform="translate(0,-277.15623)"><rect id="rect14" width="11.906" height="11.906" x="-15.875" y="-293.031" transform="scale(-1)" style="stroke-width:.26169172"/><rect id="rect16" width="11.377" height="11.377" x="-15.61" y="-292.767" transform="scale(-1)" style="fill:#fff;stroke-width:.26155958"/><circle style="fill:#000;stroke-width:.26458335" id="path18" cx="-17.859" cy="-287.078" r="1.984" transform="scale(-1)"/><circle style="fill:#fea;stroke-width:.26458335" id="path20" cx="-17.859" cy="-287.078" r="1.72" transform="scale(-1)"/><circle style="fill:#000;stroke-width:.26458335" id="path22" cx="-9.922" cy="279.141" r="1.984" transform="scale(-1,1)"/><circle style="fill:#fc0;stroke-width:.26458335" id="path24" cx="-9.922" cy="279.141" r="1.72" transform="scale(-1,1)"/><path style="fill:red;stroke-width:1" id="rect26" d="M 47 3 L 38.511719 6.3945312 A 1.5000001 1.5000001 0 0 0 37.5 6 A 1.5000001 1.5000001 0 0 0 36 7.5 A 1.5000001 1.5000001 0 0 0 37.5 9 A 1.5000001 1.5000001 0 0 0 38.511719 8.6054688 L 47 12 L 47 11 L 39.5 8 L 59.998047 8 L 60 8 L 60.005859 8.0078125 A 6.9999997 6.9999997 0 0 1 64.808594 9.9121094 A 6.9999997 6.9999997 0 0 1 66.996094 15.085938 L 67 15.089844 L 67 36.087891 A 1.5000001 1.5000001 0 0 0 66 37.5 A 1.5000001 1.5000001 0 0 0 67.5 39 A 1.5000001 1.5000001 0 0 0 69 37.5 A 1.5000001 1.5000001 0 0 0 68 36.087891 L 68 15 L 67.992188 15 A 8.0000003 8.0000003 0 0 0 65.691406 9.3789062 A 8.0000003 8.0000003 0 0 0 60 7.0019531 L 60 7 L 39.5 7 L 47 4 L 47 3 z" transform="matrix(0.26458334,0,0,0.26458334,0,277.15623)"/></g></svg>