<svg xmlns="http://www.w3.org/2000/svg" xmlns:svg="http://www.w3.org/2000/svg" id="svg8" width="75" height="75" version="1.1" viewBox="0 0 19.844 19.844"><metadata id="metadata5"/><g id="layer1" transform="translate(0,-277.15623)"><rect id="rect14" width="11.906" height="11.906" x="-15.875" y="-293.031" transform="scale(-1)" style="stroke-width:.26169172"/><rect id="rect16" width="11.377" height="11.377" x="-15.61" y="-292.767" transform="scale(-1)" style="fill:#fff;stroke-width:.26155958"/><circle style="fill:#000;stroke-width:.26458335" id="path18" cx="-13.626" cy="-287.078" r="1.984" transform="scale(-1)"/><circle style="fill:#fea;stroke-width:.26458335" id="path20" cx="-13.626" cy="-287.078" r="1.72" transform="scale(-1)"/><circle style="fill:#000;stroke-width:.26458335" id="path22" cx="-9.922" cy="283.374" r="1.984" transform="scale(-1,1)"/><circle style="fill:#fc0;stroke-width:.26458335" id="path24" cx="-9.922" cy="283.374" r="1.72" transform="scale(-1,1)"/><path style="fill:red;stroke-width:.80757487" id="rect26" d="M 47 19 L 38.511719 22.394531 A 1.5000001 1.5000001 0 0 0 37.5 22 A 1.5000001 1.5000001 0 0 0 36 23.5 A 1.5000001 1.5000001 0 0 0 37.5 25 A 1.5000001 1.5000001 0 0 0 38.511719 24.605469 L 47 28 L 47 27 L 39.5 24 L 51 24 L 51 36.087891 A 1.5000001 1.5000001 0 0 0 50 37.5 A 1.5000001 1.5000001 0 0 0 51.5 39 A 1.5000001 1.5000001 0 0 0 53 37.5 A 1.5000001 1.5000001 0 0 0 52 36.087891 L 52 23 L 39.5 23 L 47 20 L 47 19 z" transform="matrix(0.26458334,0,0,0.26458334,0,277.15623)"/></g></svg>