<svg xmlns="http://www.w3.org/2000/svg" xmlns:svg="http://www.w3.org/2000/svg" id="svg8" width="75" height="75" version="1.1" viewBox="0 0 19.844 19.844"><metadata id="metadata5"/><g id="layer1" transform="translate(0,-277.15623)"><rect id="rect14" width="11.906" height="11.906" x="3.969" y="281.125" style="stroke-width:.26169172"/><rect id="rect16" width="11.377" height="11.377" x="4.233" y="281.39" style="fill:#fff;stroke-width:.26155958"/><circle style="fill:#000;stroke-width:.26458335" id="path18" cx="4.101" cy="287.078" r="1.984"/><circle style="fill:#fea;stroke-width:.26458335" id="path20" cx="4.101" cy="287.078" r="1.72"/><circle style="fill:#000;stroke-width:.26458335" id="path22" cx="9.922" cy="281.257" r="1.984"/><circle style="fill:#fc0;stroke-width:.26458335" id="path24" cx="9.922" cy="281.257" r="1.72"/><path style="fill:red;fill-opacity:1;stroke-width:.41702291" id="rect26" d="M 15 34 L 15 36.087891 A 1.5000001 1.5000001 0 0 0 14 37.5 A 1.5000001 1.5000001 0 0 0 15.5 39 A 1.5000001 1.5000001 0 0 0 17 37.5 A 1.5000001 1.5000001 0 0 0 16 36.087891 L 16 34 L 15 34 z" transform="matrix(0.26458334,0,0,0.26458334,0,277.15623)"/><path style="fill:red;fill-opacity:1;stroke-width:.4170289" id="rect28" d="M 28 11 L 28 12 L 35.5 15 L 34 15 L 34 16 L 35.501953 16 L 28 19 L 28 20 L 36.488281 16.605469 A 1.5000001 1.5000001 0 0 0 37.5 17 A 1.5000001 1.5000001 0 0 0 39 15.5 A 1.5000001 1.5000001 0 0 0 37.5 14 A 1.5000001 1.5000001 0 0 0 36.488281 14.394531 L 28 11 z" transform="matrix(0.26458334,0,0,0.26458334,0,277.15623)"/><rect style="fill:red;fill-opacity:1;stroke-width:.11033732" id="rect26-4" width=".265" height="1.058" x="3.969" y="284.565"/><rect style="fill:red;fill-opacity:1;stroke-width:.11033732" id="rect26-4-9" width=".265" height="1.058" x="3.969" y="282.977"/><rect style="fill:red;fill-opacity:1;stroke-width:.12336376" id="rect26-4-9-9" width=".265" height="1.323" x="3.969" y="281.125"/><rect style="fill:red;fill-opacity:1;stroke-width:.1103389" id="rect28-0" width="1.058" height=".265" x="7.408" y="281.125"/><rect style="fill:red;fill-opacity:1;stroke-width:.1103389" id="rect28-0-9" width="1.058" height=".265" x="5.821" y="281.125"/><rect style="fill:red;fill-opacity:1;stroke-width:.12336264" id="rect28-0-9-6" width="1.323" height=".265" x="3.969" y="281.125"/></g></svg>