<svg xmlns="http://www.w3.org/2000/svg" xmlns:svg="http://www.w3.org/2000/svg" id="svg8" width="75" height="75" version="1.1" viewBox="0 0 19.844 19.844"><metadata id="metadata5"/><g id="layer1" transform="translate(0,-277.15623)"><path style="fill:#da4453;fill-opacity:1;stroke:none;stroke-width:21.0654;stroke-miterlimit:4;stroke-dasharray:none;stroke-opacity:1" id="rect4585-9" d="M 37 23 L 37 24 L 53 24 L 53 23 L 37 23 z M 24 25 L 24 26 L 50 26 L 50 33 L 24 33 L 24 42 L 50 42 L 50 49 L 24 49 L 24 50 L 51 50 L 51 41 L 25 41 L 25 34 L 51 34 L 51 25 L 24 25 z" transform="matrix(0.26458334,0,0,0.26458334,0,277.15623)"/><path style="stroke-width:.989072;fill:silver;fill-opacity:1" id="rect14" d="M 15 15 L 15 60 L 60 60 L 60 15 L 15 15 z M 16 16 L 37.464844 16 A 7.4999998 7.4999998 0 0 0 30 23.5 A 7.4999998 7.4999998 0 0 0 37.5 31 A 7.4999998 7.4999998 0 0 0 45 23.5 A 7.4999998 7.4999998 0 0 0 37.5 16 L 59 16 L 59 59 L 16 59 L 16 16 z" transform="matrix(0.26458334,0,0,0.26458334,0,277.15623)"/><circle id="path24" cx="9.922" cy="283.374" r="1.72" style="fill:#3daee9;stroke-width:.26458335;fill-opacity:1"/><path style="fill:#da4453;fill-opacity:1;stroke:none;stroke-width:16;stroke-miterlimit:4;stroke-dasharray:none;stroke-opacity:1" id="rect4559" d="M 28 19 L 28 20 L 35.5 23 L 22 23 L 22 52 L 53 52 L 53 23 L 52 23 L 52 51 L 23 51 L 23 24 L 35.5 24 L 28 27 L 28 28 L 36.488281 24.605469 C 36.76441 24.858621 37.12532 24.999471 37.5 25 C 38.328428 25 39 24.328435 39 23.5 C 39 22.671565 38.328428 22 37.5 22 C 37.125321 22.000567 36.764414 22.141303 36.488281 22.394531 L 28 19 z M 40 23 L 40 24 L 43 24 L 43 23 L 40 23 z" transform="matrix(0.26458334,0,0,0.26458334,0,277.15623)"/></g></svg>