<svg xmlns="http://www.w3.org/2000/svg" xmlns:svg="http://www.w3.org/2000/svg" id="svg8" width="75" height="75" version="1.1" viewBox="0 0 19.844 19.844"><metadata id="metadata5"/><g id="layer1" transform="translate(0,-277.15623)"><circle style="fill:silver;stroke-width:.264583;fill-opacity:.5" id="path24-5" cx="9.922" cy="287.078" r="1.72"/><path style="stroke-width:.989072;fill:silver;fill-opacity:1" id="rect14" d="M 15 15 L 15 60 L 60 60 L 60 15 L 15 15 z M 16 16 L 51.464844 16 A 7.4999998 7.4999998 0 0 0 44 23.5 A 7.4999998 7.4999998 0 0 0 51.5 31 A 7.4999998 7.4999998 0 0 0 59 23.537109 L 59 59 L 16 59 L 16 16 z M 51.5 16 L 59 16 L 59 23.462891 A 7.4999998 7.4999998 0 0 0 51.5 16 z M 37.5 30 A 7.4999998 7.4999998 0 0 0 30 37.5 A 7.4999998 7.4999998 0 0 0 37.5 45 A 7.4999998 7.4999998 0 0 0 45 37.5 A 7.4999998 7.4999998 0 0 0 37.5 30 z M 37.5 31 A 6.5 6.5 0 0 1 42.416016 33.246094 A 6.5 6.5 0 0 1 42.416016 33.248047 A 6.5 6.5 0 0 1 42.931641 33.929688 A 6.5 6.5 0 0 1 42.931641 33.931641 A 6.5 6.5 0 0 1 43.998047 37.365234 A 6.5 6.5 0 0 1 44 37.5 A 6.5 6.5 0 0 1 37.5 44 A 6.5 6.5 0 0 1 31.261719 39.324219 A 6.5 6.5 0 0 1 31.205078 39.117188 A 6.5 6.5 0 0 1 31 37.5 A 6.5 6.5 0 0 1 31.003906 37.285156 A 6.5 6.5 0 0 1 37.5 31 z" transform="matrix(0.26458334,0,0,0.26458334,0,277.15623)"/><path id="rect4555" d="M 22 23 L 22 52 L 22 53 L 23 53 L 53 53 L 53 52 L 53 30 L 30 30 L 30 31 L 30 44 L 30 45 L 31 45 L 45 45 L 45 44 L 31 44 L 31 31 L 52 31 L 52 52 L 23 52 L 23 23 L 22 23 z" transform="matrix(0.26458334,0,0,0.26458334,0,277.15623)" style="fill:#da4453;fill-opacity:1;stroke:none;stroke-width:14.00949669;stroke-miterlimit:4;stroke-dasharray:none;stroke-opacity:1"/><circle id="path24" cx="13.626" cy="283.374" r="1.72" style="fill:#3daee9;stroke-width:.26458335;fill-opacity:1"/><path id="rect28" d="M 42 19 L 42 20 L 49.5 23 L 22 23 L 22 24 L 49.501953 24 L 42 27 L 42 28 L 50.488281 24.605469 A 1.5000001 1.5000001 0 0 0 51.5 25 A 1.5000001 1.5000001 0 0 0 53 23.5 A 1.5000001 1.5000001 0 0 0 51.5 22 A 1.5000001 1.5000001 0 0 0 50.488281 22.394531 L 42 19 z" transform="matrix(0.26458334,0,0,0.26458334,0,277.15623)" style="fill:#da4453;stroke-width:1.14208043;fill-opacity:1"/><path id="path4529" d="M 37.5 36 A 1.5000001 1.5000001 0 0 0 36 37.5 A 1.5000001 1.5000001 0 0 0 37.5 39 A 1.5000001 1.5000001 0 0 0 38.912109 38 L 44 38 L 44 45 L 45 45 L 45 37 L 38.912109 37 A 1.5000001 1.5000001 0 0 0 37.5 36 z" transform="matrix(0.26458334,0,0,0.26458334,0,277.15623)" style="fill:#da4453;fill-opacity:1;stroke:none;stroke-width:16;stroke-miterlimit:4;stroke-dasharray:none;stroke-opacity:1"/></g></svg>