<svg xmlns="http://www.w3.org/2000/svg" xmlns:svg="http://www.w3.org/2000/svg" id="svg8" width="75" height="75" version="1.1" viewBox="0 0 19.844 19.844"><metadata id="metadata5"/><g id="layer1" transform="translate(0,-277.15623)"><circle style="fill:silver;stroke-width:.264583;fill-opacity:.5" id="path24-2" cx="6.218" cy="287.078" r="1.72"/><path style="stroke-width:.989072;fill:silver;fill-opacity:1" id="rect14" d="M 15 15 L 15 60 L 60 60 L 60 15 L 15 15 z M 16 16 L 37.462891 16 A 7.4999998 7.4999998 0 0 0 30 23.5 A 7.4999998 7.4999998 0 0 0 37.5 31 A 7.4999998 7.4999998 0 0 0 45 23.5 A 7.4999998 7.4999998 0 0 0 37.5 16 L 59 16 L 59 59 L 16 59 L 16 37.5 L 16 16 z M 16 37.5 A 7.4999998 7.4999998 0 0 0 23.5 45 A 7.4999998 7.4999998 0 0 0 31 37.5 A 7.4999998 7.4999998 0 0 0 23.5 30 A 7.4999998 7.4999998 0 0 0 23.462891 30 A 7.4999998 7.4999998 0 0 0 16 37.5 z M 23.5 31 A 6.5 6.5 0 0 1 30 37.5 A 6.5 6.5 0 0 1 23.5 44 A 6.5 6.5 0 0 1 17 37.5 A 6.5 6.5 0 0 1 23.5 31 z" transform="matrix(0.26458334,0,0,0.26458334,0,277.15623)"/><circle id="path24" cx="9.922" cy="283.374" r="1.72" style="fill:#3daee9;stroke-width:.26458335;fill-opacity:1"/><path id="rect26" d="M 28 19 L 28 20 L 35.5 23 L 23 23 L 23 24 L 23 36.087891 A 1.5000001 1.5000001 0 0 0 22 37.5 A 1.5000001 1.5000001 0 0 0 23.5 39 A 1.5000001 1.5000001 0 0 0 25 37.5 A 1.5000001 1.5000001 0 0 0 24 36.087891 L 24 24 L 35.501953 24 L 28 27 L 28 28 L 36.488281 24.605469 A 1.5000001 1.5000001 0 0 0 37.5 25 A 1.5000001 1.5000001 0 0 0 39 23.5 A 1.5000001 1.5000001 0 0 0 37.5 22 A 1.5000001 1.5000001 0 0 0 36.488281 22.394531 L 28 19 z" transform="matrix(0.26458334,0,0,0.26458334,0,277.15623)" style="fill:#da4453;stroke-width:.80757487;fill-opacity:1"/></g></svg>