<svg xmlns="http://www.w3.org/2000/svg" xmlns:svg="http://www.w3.org/2000/svg" id="svg8" width="75" height="75" version="1.1" viewBox="0 0 19.844 19.844"><metadata id="metadata5"/><g id="layer1" transform="translate(0,-277.15623)"><path style="stroke-width:.989072;fill:silver;fill-opacity:1" id="rect14" d="M 37.462891 0 A 7.4999998 7.4999998 0 0 0 30 7.5 A 7.4999998 7.4999998 0 0 0 37.5 15 L 15 15 L 15 37.5 A 7.4999998 7.4999998 0 0 0 7.5 30 A 7.4999998 7.4999998 0 0 0 7.4628906 30 A 7.4999998 7.4999998 0 0 0 0 37.5 A 7.4999998 7.4999998 0 0 0 7.5 45 A 7.4999998 7.4999998 0 0 0 15 37.537109 L 15 60 L 60 60 L 60 15 L 37.537109 15 A 7.4999998 7.4999998 0 0 0 45 7.5 A 7.4999998 7.4999998 0 0 0 37.5 0 A 7.4999998 7.4999998 0 0 0 37.462891 0 z M 16 16 L 59 16 L 59 59 L 16 59 L 16 16 z M 7.5 31 A 6.5 6.5 0 0 1 14 37.5 A 6.5 6.5 0 0 1 7.5 44 A 6.5 6.5 0 0 1 1 37.5 A 6.5 6.5 0 0 1 7.5 31 z" transform="matrix(0.26458334,0,0,0.26458334,0,277.15623)"/><circle style="fill:silver;stroke-width:.264583;fill-opacity:.5" id="path24-8" cx="1.984" cy="287.078" r="1.72"/><circle id="path24" cx="9.922" cy="279.141" r="1.72" style="fill:#3daee9;stroke-width:.26458335;fill-opacity:1"/><path id="rect26" d="M 28 3 L 28 4 L 35.5 7 L 15 7 L 15 7.0019531 A 8.0000003 8.0000003 0 0 0 9.3085938 9.3789062 A 8.0000003 8.0000003 0 0 0 7.0058594 15 L 7 15 L 7 36.087891 A 1.5000001 1.5000001 0 0 0 6 37.5 A 1.5000001 1.5000001 0 0 0 7.5 39 A 1.5000001 1.5000001 0 0 0 9 37.5 A 1.5000001 1.5000001 0 0 0 8 36.087891 L 8 15.089844 L 8.0039062 15.085938 A 6.9999998 6.9999998 0 0 1 10.191406 9.9121094 A 6.9999998 6.9999998 0 0 1 14.994141 8.0078125 L 15.001953 8 L 35.5 8 L 28 11 L 28 12 L 36.488281 8.6054688 A 1.5000001 1.5000001 0 0 0 37.5 9 A 1.5000001 1.5000001 0 0 0 39 7.5 A 1.5000001 1.5000001 0 0 0 37.5 6 A 1.5000001 1.5000001 0 0 0 36.488281 6.3945312 L 28 3 z" transform="matrix(0.26458334,0,0,0.26458334,0,277.15623)" style="fill:#da4453;stroke-width:1;fill-opacity:1"/></g></svg>