<svg xmlns="http://www.w3.org/2000/svg" xmlns:svg="http://www.w3.org/2000/svg" xmlns:xlink="http://www.w3.org/1999/xlink" id="svg2" version="1.1" viewBox="0 0 16 16"><metadata id="metadata10"/><defs id="defs8"><path id="H" fill="url(#0)" d="m24 8c-8.863992 0-16 7.136008-16 16h16v-16"/><path id="I" fill="url(#3)" d="m408.57143 539.798c8.86399 0 16-7.13601 16-16h-16v16"/><path id="J" fill="url(#1)" d="m408.57143 539.798c-8.86399 0-16-7.13601-16-16h16v16"/><linearGradient id="3" x1="424.57" x2="408.57" y1="523.8" y2="539.8" gradientUnits="userSpaceOnUse"><stop id="stop3346" stop-color="#c1cc00"/><stop id="stop3348" offset=".312" stop-color="#dfcd00"/><stop id="stop3350" offset=".562" stop-color="#f0cc00"/><stop id="stop3352" offset=".75" stop-color="#fd8c08"/><stop id="stop3354" offset="1" stop-color="#f25c13"/></linearGradient><linearGradient id="0" x1="8" x2="24" y1="24" y2="8" gradientUnits="userSpaceOnUse"><stop id="stop3357" stop-color="#e81877"/><stop id="stop3359" offset=".312" stop-color="#dd1d8c"/><stop id="stop3361" offset=".562" stop-color="#6d57b1"/><stop id="stop3363" offset=".75" stop-color="#2a78c1"/><stop id="stop3365" offset="1" stop-color="#018dcb"/></linearGradient><linearGradient id="2" x1="424.57" x2="408.57" y1="523.8" y2="507.8" gradientUnits="userSpaceOnUse"><stop id="stop3368" stop-color="#bec900"/><stop id="stop3370" offset=".312" stop-color="#9ec80a"/><stop id="stop3372" offset=".562" stop-color="#71b93d"/><stop id="stop3374" offset=".75" stop-color="#35a48f"/><stop id="stop3376" offset="1" stop-color="#018fca"/></linearGradient><linearGradient id="1" x1="392.57" x2="408.57" y1="523.8" y2="539.8" gradientUnits="userSpaceOnUse"><stop id="stop3379" stop-color="#e51561"/><stop id="stop3381" offset=".312" stop-color="#e4156c"/><stop id="stop3383" offset=".562" stop-color="#e71e2c"/><stop id="stop3385" offset=".75" stop-color="#e8301e"/><stop id="stop3387" offset="1" stop-color="#e6320e"/></linearGradient><linearGradient id="linearGradient3480" x1="424.57" x2="408.57" y1="523.8" y2="507.8" gradientUnits="userSpaceOnUse" xlink:href="#2"/><linearGradient id="linearGradient3482" x1="424.57" x2="408.57" y1="523.8" y2="507.8" gradientUnits="userSpaceOnUse" xlink:href="#2"/><linearGradient id="linearGradient3484" x1="392.57" x2="408.57" y1="523.8" y2="539.8" gradientUnits="userSpaceOnUse" xlink:href="#1"/><linearGradient id="linearGradient3486" x1="424.57" x2="408.57" y1="523.8" y2="507.8" gradientUnits="userSpaceOnUse" xlink:href="#2"/><linearGradient id="linearGradient3488" x1="424.57" x2="408.57" y1="523.8" y2="507.8" gradientUnits="userSpaceOnUse" xlink:href="#2"/></defs><g id="g3389" transform="matrix(0.93665727,0,0,0.93660767,-2.303527,-967.34673)"><g id="g3391" transform="matrix(0.38637,0.10353,-0.10353,0.38637,-92.63,796.68)"><use id="use3393" width="100%" height="100%" x="0" y="0" clip-path="url(#5)" transform="translate(384.57,499.8)" xlink:href="#H"/><use id="use3395" width="100%" height="100%" x="0" y="0" clip-path="url(#6)" xlink:href="#J"/><path id="path3397" d="m 408.57143,507.798 c 8.86399,0 16,7.13601 16,16 l -16,0 0,-16" clip-path="url(#7)" style="fill:url(#linearGradient3480)"/><use id="use3399" width="100%" height="100%" x="0" y="0" clip-path="url(#8)" xlink:href="#I"/></g><g id="g3401" transform="matrix(0.4,0,0,0.4,-152.43,831.84)" style="opacity:.7"><use id="use3403" width="100%" height="100%" x="0" y="0" clip-path="url(#9)" transform="translate(384.57,499.8)" xlink:href="#H" style="filter:url(#4)"/><use id="use3405" width="100%" height="100%" x="0" y="0" clip-path="url(#A)" xlink:href="#J" style="filter:url(#4)"/><use id="use3407" width="100%" height="100%" x="0" y="0" clip-path="url(#B)" xlink:href="#I" style="filter:url(#4)"/><path id="path3409" d="m 408.57143,507.798 c 8.86399,0 16,7.13601 16,16 l -16,0 0,-16" clip-path="url(#C)" style="fill:url(#linearGradient3482);filter:url(#4)"/></g><use id="use3411" width="100%" height="100%" x="0" y="0" clip-path="url(#9)" transform="matrix(0.28284,0.28284,-0.28284,0.28284,11,1027.79)" xlink:href="#H" style="opacity:.35"/><path id="path3413" d="m 408.57143,539.798 c -8.86399,0 -16,-7.13601 -16,-16 l 16,0 0,16" clip-path="url(#A)" transform="matrix(0.28284,0.28284,-0.28284,0.28284,43.591,777.65)" style="opacity:.35;fill:url(#linearGradient3484)"/><use id="use3415" width="100%" height="100%" x="0" y="0" clip-path="url(#B)" transform="matrix(0.28284,0.28284,-0.28284,0.28284,43.591,777.65)" xlink:href="#I" style="opacity:.35"/><path id="path3417" d="m 408.57143,507.798 c 8.86399,0 16,7.13601 16,16 l -16,0 0,-16" clip-path="url(#C)" transform="matrix(0.28284,0.28284,-0.28284,0.28284,43.591,777.65)" style="opacity:.35;fill:url(#linearGradient3486)"/><g id="g3419" transform="matrix(0.10353,0.38637,-0.38637,0.10353,171.08,829.27)"><use id="use3421" width="100%" height="100%" x="0" y="0" clip-path="url(#D)" transform="translate(384.57,499.8)" xlink:href="#H" style="opacity:.3"/><use id="use3423" width="100%" height="100%" x="0" y="0" clip-path="url(#E)" xlink:href="#J" style="opacity:.3"/><use id="use3425" width="100%" height="100%" x="0" y="0" clip-path="url(#F)" xlink:href="#I" style="opacity:.3"/><path id="path3427" d="m 408.57143,507.798 c 8.86399,0 16,7.13601 16,16 l -16,0 0,-16" clip-path="url(#G)" style="opacity:.3;fill:url(#linearGradient3488)"/></g></g></svg>