<svg xmlns="http://www.w3.org/2000/svg" xmlns:svg="http://www.w3.org/2000/svg" id="svg142" version="1.1" viewBox="0 0 16 16"><metadata id="metadata146"/><defs id="defs3051"><style id="current-color-scheme" type="text/css"/></defs><path id="path140" d="M 2 2 L 2 14 L 3 14 L 4 14 L 7 14 L 7 13 L 6 13 L 5 13 L 5 10 L 6 10 L 9 10 L 10 9 L 5 9 L 3.96875 9 L 3.96875 13 L 3 13 L 3 3 L 4 3 L 5 3 L 5 6 L 5 7 L 11 7 L 11 6 L 11 3 L 11.28125 3 L 13 4.71875 L 13 5 L 13 7 L 14 7 L 14 4.28125 L 11.71875 2 L 11.6875 2 L 11 2 L 4 2 L 3 2 L 2 2 z M 6 3 L 7.90625 3 L 7.90625 6 L 6 6 L 6 3 z" style="fill:silver;fill-opacity:1;stroke:none"/><path style="fill:silver;fill-opacity:1;stroke:none;stroke-width:1px;stroke-linecap:butt;stroke-linejoin:miter;stroke-opacity:1" id="path162" d="m 13,8 2,2 -5,5 H 8 v -2 z"/></svg>