<svg xmlns="http://www.w3.org/2000/svg" xmlns:svg="http://www.w3.org/2000/svg" id="svg8" version="1.1" viewBox="0 0 16 16"><metadata id="metadata12"/><defs id="defs3051"><style id="current-color-scheme" type="text/css">.ColorScheme-Text{color:silver}</style></defs><path style="fill:#da4453;fill-opacity:1;stroke:none;stroke-width:4.68545485" id="path4528" d="M 7 2.0898438 A 6 6 0 0 0 2.0859375 7 L 3.1015625 7 A 5 5 0 0 1 7 3.1074219 L 7 2.0898438 z M 9 2.0917969 L 9 3.1015625 A 5 5 0 0 1 12.894531 7 L 13.910156 7 A 6 6 0 0 0 9 2.0917969 z M 2.0898438 9 A 6 6 0 0 0 7 13.908203 L 7 12.898438 A 5 5 0 0 1 3.1054688 9 L 2.0898438 9 z M 12.898438 9 A 5 5 0 0 1 9 12.892578 L 9 13.910156 A 6 6 0 0 0 13.914062 9 L 12.898438 9 z"/><path style="color:silver;fill:currentColor;fill-opacity:.5;stroke:none;stroke-width:.59999996" id="path6" d="M 11,8 A 3,3 0 0 1 8,11 3,3 0 0 1 5,8 3,3 0 0 1 8,5 3,3 0 0 1 11,8 Z" class="ColorScheme-Text"/><path style="fill:silver;fill-opacity:1;stroke:none;stroke-width:1.90810275" id="path4530" d="M 8 4 A 4 4 0 0 0 4 8 A 4 4 0 0 0 8 12 A 4 4 0 0 0 12 8 A 4 4 0 0 0 8 4 z M 8 5 A 3 3 0 0 1 11 8 A 3 3 0 0 1 8 11 A 3 3 0 0 1 5 8 A 3 3 0 0 1 8 5 z"/></svg>