<svg xmlns="http://www.w3.org/2000/svg" xmlns:svg="http://www.w3.org/2000/svg" id="svg6" width="16" height="16" version="1.1" viewBox="0 0 16 16"><metadata id="metadata10"/><defs id="defs3051"><style id="current-color-scheme" type="text/css">.ColorScheme-Text{color:silver}</style></defs><path id="path4" d="M 2,2 V 3 6 H 3 V 3 H 6 V 2 H 3 Z M 8,2 6,4 h 4 z m 2,0 v 1 h 3 v 3 h 1 V 3 2 H 13 Z M 5,5 v 6 h 6 V 5 Z m 1,1 h 4 v 4 H 6 Z M 4,6 2,8 4,10 Z m 8,0 v 4 L 14,8 Z M 2,10 v 3 1 H 6 V 13 H 3 v -3 z m 11,0 v 3 h -3 v 1 h 4 v -1 -3 z m -7,2 2,2 2,-2 z" class="ColorScheme-Text" style="fill:currentColor;fill-opacity:1;stroke:none"/></svg>